<?xml version="1.0" standalone="no"?>
<!DOCTYPE svg PUBLIC "-//W3C//DTD SVG 20010904//EN"
 "http://www.w3.org/TR/2001/REC-SVG-20010904/DTD/svg10.dtd">
<svg version="1.0" xmlns="http://www.w3.org/2000/svg"
 width="286.000000pt" height="286.000000pt" viewBox="0 0 286.000000 286.000000"
 preserveAspectRatio="xMidYMid meet">
<metadata>
Created by potrace 1.11, written by Peter Selinger 2001-2013
</metadata>
<g transform="translate(0.000000,286.000000) scale(0.100000,-0.100000)"
fill="#000000" stroke="none">
<path d="M152 2770 c-33 -15 -47 -29 -62 -62 -19 -42 -20 -76 -20 -1203 l0
-1160 23 -40 c12 -22 37 -48 56 -57 38 -19 53 -37 44 -52 -3 -5 -1 -6 5 -2 6
4 8 14 5 24 -4 13 -2 13 11 -3 9 -11 15 -14 14 -6 -2 7 3 15 10 16 7 2 8 1 2
-2 -15 -7 -2 -23 14 -17 7 3 16 -2 20 -12 5 -12 3 -14 -6 -7 -7 5 -19 8 -25 7
-7 -1 -17 -2 -23 -3 -5 0 -10 -6 -10 -12 0 -6 5 -7 12 -2 19 11 37 12 43 3 8
-13 36 0 28 14 -3 6 -2 7 2 3 5 -4 15 3 23 15 11 18 12 19 7 3 -19 -56 -17
-66 11 -61 21 4 25 2 20 -12 -4 -10 1 -7 12 7 13 16 21 20 26 12 4 -6 12 -8
18 -5 8 5 9 1 5 -12 -7 -18 -6 -18 7 -1 17 22 27 22 20 0 -5 -15 -4 -15 5 -3
5 8 20 15 33 15 13 0 24 7 26 17 2 10 -2 18 -8 18 -6 0 -9 -4 -5 -9 7 -12 -12
-24 -25 -16 -5 3 -7 12 -4 20 4 8 10 12 15 9 5 -3 9 0 9 6 0 6 9 4 23 -5 13
-8 26 -12 29 -9 4 3 18 -2 32 -11 14 -10 26 -14 26 -9 0 4 5 3 12 -4 16 -16
35 -15 41 1 3 8 -1 14 -9 14 -7 0 -11 -5 -7 -10 3 -5 -4 -4 -16 2 -11 7 -21 9
-21 5 0 -3 -7 -1 -15 6 -8 7 -15 18 -15 24 0 6 6 4 13 -5 8 -9 25 -14 48 -13
30 2 39 -2 50 -22 9 -18 15 -21 21 -12 4 7 8 9 8 4 0 -5 7 -3 15 4 12 10 16 8
24 -11 8 -19 10 -20 10 -6 1 10 5 16 10 12 5 -3 12 -1 16 5 4 6 11 8 16 4 6
-3 3 -12 -8 -20 -16 -13 -15 -13 9 -3 15 7 29 18 32 26 3 8 1 11 -4 8 -6 -3
-10 -1 -10 4 0 6 6 11 14 11 8 0 16 5 18 11 2 6 9 -2 16 -17 11 -27 11 -27 -3
-10 -8 11 -15 15 -15 9 0 -7 5 -15 10 -18 6 -4 8 -11 5 -16 -3 -5 1 -6 10 -3
8 4 14 13 13 22 -2 8 3 17 9 19 7 3 13 0 13 -7 0 -6 -6 -8 -12 -4 -8 4 -10 3
-5 -2 5 -5 13 -9 17 -9 5 0 16 -9 25 -20 9 -13 13 -14 10 -4 -4 11 0 15 17 15
14 -1 24 6 26 17 2 9 -1 17 -7 17 -6 0 -10 -6 -9 -12 2 -7 -4 -13 -12 -13 -9
0 -14 8 -12 20 3 20 2 20 -13 1 -8 -11 -15 -15 -15 -9 0 20 25 34 38 21 9 -9
12 -9 12 0 0 9 7 8 23 -3 13 -8 26 -12 29 -9 4 3 18 -2 32 -11 14 -10 26 -14
26 -9 0 4 5 3 12 -4 16 -16 35 -15 41 1 3 8 -1 14 -9 14 -7 0 -11 -5 -7 -10 3
-5 -4 -4 -16 2 -11 7 -21 9 -21 5 0 -3 -7 -1 -15 6 -8 7 -15 18 -15 24 0 6 6
4 13 -4 7 -10 26 -15 47 -14 37 1 63 -20 55 -46 -3 -9 1 -7 10 4 8 11 15 16
15 12 0 -5 6 -3 13 3 14 11 27 5 27 -11 0 -5 -5 -6 -12 -2 -7 5 -8 3 -3 -6 6
-10 11 -9 22 5 7 11 13 15 13 11 0 -5 7 -3 15 4 11 9 18 10 28 1 8 -6 18 -7
22 -3 5 4 5 -2 1 -13 -5 -17 -3 -16 12 4 13 16 21 20 26 12 4 -6 12 -8 18 -5
8 5 9 1 5 -12 -7 -18 -6 -18 7 -1 17 22 27 22 20 0 -5 -15 -4 -15 5 -3 5 8 20
15 33 15 13 0 24 7 26 17 2 10 -2 18 -8 18 -6 0 -9 -4 -5 -9 7 -12 -12 -24
-25 -16 -5 3 -7 12 -4 20 4 8 10 12 15 9 5 -3 9 0 9 6 0 6 9 4 23 -5 13 -8 26
-12 29 -9 4 3 18 -2 32 -11 14 -10 26 -14 26 -9 0 4 5 3 12 -4 16 -16 35 -15
41 1 3 8 -1 14 -9 14 -7 0 -11 -5 -7 -10 3 -5 -4 -4 -16 2 -11 7 -21 9 -21 5
0 -3 -7 -1 -15 6 -8 7 -15 18 -15 24 0 6 6 4 13 -5 8 -9 25 -14 48 -13 30 2
39 -2 50 -22 9 -18 15 -21 21 -12 4 7 8 9 8 4 0 -5 7 -3 15 4 12 10 16 8 24
-11 8 -19 10 -20 10 -6 1 10 5 16 10 12 5 -3 12 -1 16 5 4 6 11 8 16 4 6 -3 3
-12 -8 -20 -16 -13 -15 -13 9 -3 15 7 29 18 32 26 3 8 1 11 -4 8 -6 -3 -10 -1
-10 4 0 6 6 11 14 11 8 0 16 5 18 11 2 6 9 -2 16 -17 11 -27 11 -27 -3 -10 -8
11 -15 15 -15 9 0 -7 5 -15 10 -18 6 -4 8 -11 5 -16 -3 -5 1 -6 10 -3 8 4 14
13 13 22 -2 8 3 17 9 19 7 3 13 0 13 -7 0 -6 -6 -8 -12 -4 -8 4 -10 3 -5 -2 5
-5 13 -9 17 -9 5 0 16 -9 25 -20 9 -13 13 -14 10 -4 -4 11 0 15 17 15 14 -1
24 6 26 17 2 9 -1 17 -7 17 -6 0 -10 -6 -9 -12 2 -7 -4 -13 -12 -13 -9 0 -14
8 -12 20 3 20 2 20 -13 1 -8 -11 -15 -15 -15 -9 0 20 25 34 38 21 9 -9 12 -9
12 0 0 9 7 8 23 -3 13 -8 26 -12 29 -9 4 3 18 -2 32 -11 14 -10 26 -14 26 -9
0 4 5 3 12 -4 16 -16 35 -15 41 1 3 8 -1 14 -9 14 -7 0 -11 -5 -7 -10 3 -5 -4
-4 -16 2 -11 7 -21 9 -21 5 0 -3 -7 -1 -15 6 -8 7 -15 18 -15 24 0 6 6 4 13
-4 7 -10 26 -15 47 -14 37 1 63 -20 55 -46 -3 -9 1 -7 10 4 8 11 15 16 15 12
0 -5 6 -3 13 3 14 11 27 5 27 -11 0 -5 -5 -6 -12 -2 -7 5 -8 3 -3 -6 6 -10 11
-9 22 5 7 11 13 15 13 11 0 -5 7 -3 15 4 11 9 18 10 28 1 8 -6 18 -7 22 -3 5
4 5 -2 1 -13 -5 -17 -3 -16 12 4 13 16 21 20 26 12 4 -6 12 -8 18 -5 8 5 9 1
5 -12 -7 -18 -6 -18 7 -1 17 22 27 22 20 0 -5 -15 -4 -15 5 -3 5 8 20 15 33
15 13 0 24 7 26 18 2 9 -2 17 -8 17 -6 0 -9 -4 -5 -9 7 -12 -12 -24 -25 -16
-5 3 -7 12 -4 20 4 8 10 12 15 9 5 -3 9 0 9 6 0 6 9 4 23 -5 13 -8 26 -12 29
-9 4 3 17 -1 30 -10 12 -8 28 -15 33 -15 6 -1 18 -8 28 -16 9 -8 17 -11 17 -5
0 5 -8 14 -18 20 -15 9 -14 10 8 7 14 -1 32 -7 40 -12 13 -8 13 -7 0 10 -14
16 -13 17 7 11 12 -4 24 -2 28 4 3 6 11 7 17 4 7 -4 8 -2 4 4 -4 7 -2 12 3 12
6 0 11 8 11 18 0 15 2 15 11 2 9 -13 10 -12 5 2 -3 11 2 21 12 27 9 5 13 13 8
18 -5 4 -11 2 -13 -4 -3 -7 -9 -13 -14 -13 -6 0 -7 5 -3 12 4 7 3 8 -4 4 -6
-4 -8 -14 -5 -23 4 -10 2 -14 -4 -10 -6 4 -17 -1 -24 -11 -13 -15 -12 -16 4
-3 21 16 23 -1 2 -19 -15 -12 -20 -4 -16 23 0 4 -4 7 -9 7 -6 0 -10 5 -10 11
0 8 4 8 14 0 12 -10 17 -8 28 11 15 27 19 58 7 58 -5 0 -9 5 -9 12 0 9 3 9 13
-1 6 -6 12 -17 12 -23 0 -6 8 -12 18 -14 15 -2 16 0 6 12 -6 8 -8 21 -4 31 5
10 7 21 7 26 -1 4 6 7 16 8 13 0 11 3 -6 10 -26 10 -21 31 6 23 15 -5 15 -4
-1 6 -19 12 -13 35 6 24 7 -4 8 -3 4 2 -5 5 -13 10 -18 10 -5 1 -11 2 -14 3
-3 0 -1 10 5 22 9 17 8 23 -7 34 -17 13 -17 14 4 10 13 -2 25 1 29 6 3 5 0 8
-8 7 -7 -2 -12 3 -10 10 1 8 -2 11 -8 7 -6 -3 -8 -9 -6 -13 2 -4 -7 -8 -20 -8
-13 -1 -21 2 -18 7 3 5 12 9 20 9 8 0 14 5 14 10 0 14 -12 12 -40 -7 -23 -15
-24 -16 -12 0 8 9 22 19 33 22 11 4 17 10 14 15 -3 5 -1 11 4 15 6 3 8 -4 6
-16 -2 -12 -2 -19 2 -15 3 3 13 0 22 -6 11 -9 10 -6 -2 9 -18 20 -18 22 0 33
14 9 14 10 1 6 -23 -7 -29 3 -17 26 8 15 7 23 -8 33 -13 10 -14 13 -3 12 8 -2
22 -7 30 -12 11 -6 10 -2 -3 12 -9 11 -14 23 -10 28 5 4 2 5 -5 1 -7 -4 -10
-10 -8 -14 2 -4 -7 -8 -20 -8 -13 -1 -21 2 -18 7 3 5 12 9 20 9 8 0 14 5 14
10 0 14 -12 12 -40 -7 -23 -15 -24 -16 -12 0 8 9 22 19 33 22 11 4 17 10 14
15 -3 5 -1 11 4 15 6 3 8 -3 6 -13 -2 -12 3 -18 18 -19 20 -2 20 -1 4 8 -9 6
-15 15 -12 20 4 5 12 6 18 3 7 -4 8 -3 4 2 -5 5 -13 10 -18 10 -5 1 -11 2 -14
3 -3 0 -1 10 5 22 9 17 8 23 -7 34 -17 13 -17 14 4 10 13 -2 25 1 29 6 3 5 0
8 -8 7 -7 -2 -12 3 -10 10 1 8 -2 11 -8 7 -6 -3 -8 -9 -6 -13 2 -4 -7 -8 -20
-8 -13 -1 -21 2 -18 7 3 5 12 9 20 9 8 0 14 5 14 10 0 14 -12 12 -40 -7 -23
-15 -24 -16 -12 0 8 9 22 19 33 22 11 4 17 10 14 15 -3 5 -1 11 4 15 6 3 8 -4
6 -16 -2 -12 -2 -19 2 -15 3 3 13 0 22 -6 11 -9 10 -6 -2 9 -18 20 -18 22 0
33 14 9 14 10 1 6 -23 -7 -29 3 -17 26 8 15 7 23 -8 33 -13 10 -14 13 -3 12 8
-2 22 -7 30 -12 11 -6 10 -2 -3 12 -9 11 -14 23 -10 28 5 4 2 5 -5 1 -7 -4
-10 -10 -8 -14 2 -4 -7 -8 -20 -8 -13 -1 -21 2 -18 7 3 5 12 9 20 9 8 0 14 5
14 10 0 14 -12 12 -40 -7 -23 -15 -24 -16 -12 0 8 9 22 19 33 22 11 4 17 10
14 15 -3 5 -1 11 4 15 6 3 8 -3 6 -13 -2 -12 3 -18 18 -19 20 -2 20 -1 4 8 -9
6 -15 15 -12 20 4 5 12 6 18 3 7 -4 8 -3 4 2 -5 5 -13 10 -18 10 -5 1 -11 2
-14 3 -3 0 -1 10 5 22 9 17 8 23 -7 34 -17 13 -17 14 4 10 13 -2 25 1 29 6 3
5 0 8 -8 7 -7 -2 -12 3 -10 10 1 8 -2 11 -8 7 -6 -3 -8 -9 -6 -13 2 -4 -7 -8
-20 -8 -13 -1 -21 2 -18 7 3 5 12 9 20 9 8 0 14 5 14 10 0 14 -12 12 -40 -7
-23 -15 -24 -16 -12 0 8 9 22 19 33 22 11 4 17 10 14 15 -3 5 -1 11 4 15 6 3
8 -4 6 -16 -2 -12 -2 -19 2 -15 3 3 13 0 22 -6 11 -9 10 -6 -2 9 -18 20 -18
22 0 33 14 9 14 10 1 6 -23 -7 -29 3 -17 26 8 15 7 23 -8 33 -13 10 -14 13 -3
12 8 -2 22 -7 30 -12 11 -6 10 -2 -3 12 -9 11 -14 23 -10 28 5 4 2 5 -5 1 -7
-4 -10 -10 -8 -14 2 -4 -7 -8 -20 -8 -13 -1 -21 2 -18 7 3 5 12 9 20 9 8 0 14
5 14 10 0 14 -12 12 -40 -7 -23 -15 -24 -16 -12 0 8 9 22 19 33 22 11 4 17 10
14 15 -3 5 -1 11 4 15 6 3 8 -3 6 -13 -2 -12 3 -18 18 -19 20 -2 20 -1 4 8 -9
6 -15 15 -12 20 4 5 12 6 18 3 7 -4 8 -3 4 2 -5 5 -13 10 -18 10 -5 1 -11 2
-14 3 -3 0 -1 10 5 22 9 17 8 23 -7 34 -17 13 -17 14 4 10 13 -2 25 1 29 6 3
5 0 8 -8 7 -7 -2 -12 3 -10 10 1 8 -2 11 -8 7 -6 -3 -8 -9 -6 -13 2 -4 -7 -8
-20 -8 -13 -1 -21 2 -18 7 3 5 12 9 20 9 8 0 14 5 14 10 0 14 -12 12 -40 -7
-23 -15 -24 -16 -12 0 8 9 22 19 33 22 11 4 17 10 14 15 -3 5 -1 11 4 15 6 3
8 -4 6 -16 -2 -12 -2 -19 2 -15 3 3 13 0 22 -6 11 -9 10 -6 -2 9 -18 20 -18
22 0 33 14 9 14 10 1 6 -23 -7 -29 3 -17 26 8 15 7 23 -8 33 -13 10 -14 13 -3
12 8 -2 22 -7 30 -12 11 -6 10 -2 -3 12 -9 11 -14 23 -10 28 5 4 2 5 -5 1 -7
-4 -10 -10 -8 -14 2 -4 -7 -8 -20 -8 -13 -1 -21 2 -18 7 3 5 12 9 20 9 8 0 14
5 14 10 0 14 -12 12 -40 -7 -23 -15 -24 -16 -12 0 8 9 22 19 33 22 11 4 17 10
14 15 -3 5 -1 11 4 15 6 3 8 -3 6 -13 -2 -12 3 -18 18 -19 20 -2 20 -1 4 8 -9
6 -15 15 -12 20 4 5 12 6 18 3 7 -4 8 -3 4 2 -5 5 -13 10 -18 10 -5 1 -11 2
-14 3 -3 0 -1 10 5 22 9 17 8 23 -7 34 -17 13 -17 14 4 10 13 -2 25 1 29 6 3
5 0 8 -8 7 -7 -2 -12 3 -10 10 1 8 -2 11 -8 7 -6 -3 -8 -9 -6 -13 2 -4 -7 -8
-20 -8 -13 -1 -21 2 -18 7 3 5 12 9 20 9 8 0 14 5 14 10 0 14 -12 12 -40 -7
-23 -15 -24 -16 -12 0 8 9 22 19 33 22 11 4 17 10 14 15 -3 5 -1 11 4 15 6 3
8 -4 6 -16 -2 -12 -2 -19 2 -15 3 3 13 0 22 -6 11 -9 10 -6 -2 9 -18 20 -18
22 0 33 14 9 14 10 1 6 -23 -7 -29 3 -17 26 8 15 7 23 -8 33 -13 10 -14 13 -3
12 8 -2 22 -7 30 -12 11 -6 10 -2 -3 12 -9 11 -14 23 -10 28 5 4 2 5 -5 1 -7
-4 -10 -10 -8 -14 2 -4 -7 -8 -20 -8 -13 -1 -21 2 -18 7 3 5 12 9 20 9 8 0 14
5 14 10 0 14 -12 12 -40 -7 -23 -15 -24 -16 -12 0 8 9 22 19 33 22 11 4 17 10
14 15 -3 5 -1 11 4 15 6 3 8 -3 6 -13 -2 -12 3 -18 18 -19 20 -2 20 -1 4 8 -9
6 -15 15 -12 20 4 5 12 6 18 3 7 -4 8 -3 4 2 -5 5 -13 10 -18 10 -5 1 -11 2
-14 3 -3 0 -1 10 5 22 9 17 8 23 -7 34 -17 13 -17 14 4 10 13 -2 25 1 29 6 3
5 0 8 -8 7 -7 -2 -12 3 -10 10 1 8 -2 11 -8 7 -6 -3 -8 -9 -6 -13 2 -4 -7 -8
-20 -8 -13 -1 -21 2 -18 7 3 5 12 9 20 9 8 0 14 5 14 10 0 14 -12 12 -40 -7
-23 -15 -24 -16 -12 0 8 9 22 19 33 22 11 4 17 10 14 15 -3 5 -1 11 4 15 6 3
8 -4 6 -16 -2 -12 -2 -19 2 -15 3 3 13 0 22 -6 11 -9 10 -6 -2 9 -18 20 -18
22 0 33 14 9 14 10 1 6 -23 -7 -29 3 -17 26 8 15 7 23 -8 33 -13 10 -14 13 -3
12 8 -2 22 -7 30 -12 11 -6 10 -2 -3 12 -9 11 -14 23 -10 28 5 4 2 5 -5 1 -7
-4 -10 -10 -8 -14 2 -4 -7 -8 -20 -8 -13 -1 -21 2 -18 7 3 5 12 9 20 9 8 0 14
5 14 10 0 14 -12 12 -40 -7 -23 -15 -24 -16 -12 0 8 9 22 19 33 22 11 4 17 10
14 15 -3 5 -1 11 4 15 6 3 8 -3 6 -13 -2 -12 3 -18 18 -19 20 -2 20 -1 4 8 -9
6 -15 15 -12 20 4 5 12 6 18 3 7 -4 8 -3 4 2 -5 5 -13 10 -18 10 -5 1 -11 2
-14 3 -3 0 -1 10 5 22 9 17 8 23 -7 34 -17 13 -17 14 4 10 13 -2 25 1 29 6 3
5 0 8 -8 7 -7 -2 -12 3 -10 10 1 8 -2 11 -8 7 -6 -3 -8 -9 -6 -13 2 -4 -7 -8
-20 -8 -13 -1 -21 2 -18 7 3 5 12 9 20 9 8 0 14 5 14 10 0 15 -21 12 -44 -8
-21 -17 -21 -17 -4 3 21 26 23 36 6 47 -10 8 -10 9 2 5 8 -2 14 -10 12 -16 -1
-6 5 -11 14 -11 8 0 12 4 9 10 -4 6 1 7 11 3 12 -4 15 -3 10 5 -4 7 -13 12
-21 12 -16 0 -26 25 -18 47 5 12 3 14 -8 8 -8 -4 -11 -4 -6 0 4 5 -1 18 -10
29 -18 21 -18 21 3 3 12 -10 24 -15 26 -10 3 4 3 3 2 -4 -2 -7 2 -15 8 -19 7
-4 6 -9 -2 -14 -7 -4 -9 -13 -6 -19 9 -13 16 -14 36 -1 13 8 12 12 -6 24 -14
10 -20 24 -19 39 2 20 -1 24 -16 20 -11 -3 -19 0 -19 6 0 7 -4 10 -8 7 -4 -2
-8 5 -9 17 0 12 -4 31 -8 42 -5 16 -5 17 4 5 6 -8 11 -10 11 -5 -1 14 -48 59
-90 84 l-35 21 -1160 0 c-1127 0 -1161 -1 -1203 -20z m2548 -230 c0 -5 -5 -10
-11 -10 -5 0 -7 5 -4 10 3 6 8 10 11 10 2 0 4 -4 4 -10z m-10 -159 c-5 -10 -6
-21 -3 -25 3 -3 1 -6 -5 -6 -13 0 -14 2 -16 42 -2 23 1 25 16 17 14 -8 16 -14
8 -28z m-25 -40 c3 -5 0 -13 -6 -17 -7 -4 -9 -3 -5 4 3 5 0 13 -6 15 -9 4 -10
6 -1 6 6 1 14 -3 18 -8z m25 -120 c-5 -10 -6 -21 -3 -25 3 -3 1 -6 -5 -6 -13
0 -14 2 -16 42 -2 23 1 25 16 17 14 -8 16 -14 8 -28z m-25 -40 c3 -5 0 -13 -6
-17 -7 -4 -9 -3 -5 4 3 5 0 13 -6 15 -9 4 -10 6 -1 6 6 1 14 -3 18 -8z m25
-120 c-5 -10 -6 -21 -3 -25 3 -3 1 -6 -5 -6 -13 0 -14 2 -16 42 -2 23 1 25 16
17 14 -8 16 -14 8 -28z m-25 -40 c3 -5 0 -13 -6 -17 -7 -4 -9 -3 -5 4 3 5 0
13 -6 15 -9 4 -10 6 -1 6 6 1 14 -3 18 -8z m25 -120 c-5 -10 -6 -21 -3 -25 3
-3 1 -6 -5 -6 -13 0 -14 2 -16 42 -2 23 1 25 16 17 14 -8 16 -14 8 -28z m-25
-40 c3 -5 0 -13 -6 -17 -7 -4 -9 -3 -5 4 3 5 0 13 -6 15 -9 4 -10 6 -1 6 6 1
14 -3 18 -8z m25 -120 c-5 -10 -6 -21 -3 -25 3 -3 1 -6 -5 -6 -13 0 -14 2 -16
42 -2 23 1 25 16 17 14 -8 16 -14 8 -28z m-25 -40 c3 -5 0 -13 -6 -17 -7 -4
-9 -3 -5 4 3 5 0 13 -6 15 -9 4 -10 6 -1 6 6 1 14 -3 18 -8z m25 -120 c-5 -10
-6 -21 -3 -25 3 -3 1 -6 -5 -6 -13 0 -14 2 -16 42 -2 23 1 25 16 17 14 -8 16
-14 8 -28z m-25 -40 c3 -5 0 -13 -6 -17 -7 -4 -9 -3 -5 4 3 5 0 13 -6 15 -9 4
-10 6 -1 6 6 1 14 -3 18 -8z m25 -120 c-5 -10 -6 -21 -3 -25 3 -3 1 -6 -5 -6
-13 0 -14 2 -16 42 -2 23 1 25 16 17 14 -8 16 -14 8 -28z m-25 -40 c3 -5 0
-13 -6 -17 -7 -4 -9 -3 -5 4 3 5 0 13 -6 15 -9 4 -10 6 -1 6 6 1 14 -3 18 -8z
m25 -120 c-5 -10 -6 -21 -3 -25 3 -3 1 -6 -5 -6 -13 0 -14 2 -16 42 -2 23 1
25 16 17 14 -8 16 -14 8 -28z m-25 -40 c3 -5 0 -13 -6 -17 -7 -4 -9 -3 -5 4 3
5 0 13 -6 15 -9 4 -10 6 -1 6 6 1 14 -3 18 -8z m25 -120 c-5 -10 -6 -21 -3
-25 3 -3 1 -6 -5 -6 -13 0 -14 2 -16 42 -2 23 1 25 16 17 14 -8 16 -14 8 -28z
m-25 -40 c3 -5 0 -13 -6 -17 -7 -4 -9 -3 -5 4 3 5 0 13 -6 15 -9 4 -10 6 -1 6
6 1 14 -3 18 -8z m25 -120 c-5 -10 -6 -21 -3 -25 3 -3 1 -6 -5 -6 -13 0 -14 2
-16 42 -2 23 1 25 16 17 14 -8 16 -14 8 -28z m-25 -40 c3 -5 0 -13 -6 -17 -7
-4 -9 -3 -5 4 3 5 0 13 -6 15 -9 4 -10 6 -1 6 6 1 14 -3 18 -8z m25 -120 c-5
-10 -6 -21 -3 -25 3 -3 1 -6 -5 -6 -13 0 -14 2 -16 42 -2 23 1 25 16 17 14 -8
16 -14 8 -28z m-25 -40 c3 -5 0 -13 -6 -17 -7 -4 -9 -3 -5 4 3 5 0 13 -6 15
-9 4 -10 6 -1 6 6 1 14 -3 18 -8z m25 -120 c-5 -10 -6 -21 -3 -25 3 -3 1 -6
-5 -6 -13 0 -14 2 -16 42 -2 23 1 25 16 17 14 -8 16 -14 8 -28z m-25 -40 c3
-5 0 -13 -6 -17 -7 -4 -9 -3 -5 4 3 5 0 13 -6 15 -9 4 -10 6 -1 6 6 1 14 -3
18 -8z m25 -121 c-6 -11 -6 -21 -1 -24 12 -8 7 -36 -8 -45 -10 -6 -9 -10 2
-14 17 -7 16 -39 -1 -45 -7 -2 -12 3 -12 12 0 9 6 16 13 16 8 0 7 3 -3 9 -8 6
-18 7 -22 5 -4 -3 -8 -1 -8 5 0 5 9 12 20 16 20 6 23 24 6 37 -5 3 -10 20 -11
37 -2 26 1 29 17 20 14 -8 16 -14 8 -29z m-25 -39 c3 -5 0 -13 -6 -17 -7 -4
-9 -3 -5 4 3 5 0 13 -6 15 -9 4 -10 6 -1 6 6 1 14 -3 18 -8z m-15 -71 c0 -5
-2 -10 -4 -10 -3 0 -8 5 -11 10 -3 6 -1 10 4 10 6 0 11 -4 11 -10z m-9 -87
c-12 -20 -14 -14 -5 12 4 9 9 14 11 11 3 -2 0 -13 -6 -23z m-96 -32 c3 -5 2
-12 -3 -15 -5 -3 -9 1 -9 9 0 17 3 19 12 6z m24 -23 c-22 -17 -22 -18 -4 -16
11 2 23 8 27 13 5 6 14 3 25 -7 11 -11 13 -18 5 -18 -7 0 -12 5 -12 12 0 7 -7
5 -18 -5 -12 -11 -22 -13 -32 -7 -19 12 -33 13 -26 1 4 -5 0 -8 -6 -7 -21 3
-38 16 -38 29 1 7 6 5 13 -4 11 -15 15 -14 45 6 17 12 28 26 24 30 -4 5 -1 5
7 0 11 -6 9 -12 -10 -27z m-2269 12 c0 -5 -5 -10 -11 -10 -5 0 -7 5 -4 10 3 6
8 10 11 10 2 0 4 -4 4 -10z m170 0 c0 -5 -5 -10 -11 -10 -5 0 -7 5 -4 10 3 6
8 10 11 10 2 0 4 -4 4 -10z m100 3 c0 -1 -8 -7 -18 -12 -13 -7 -19 -6 -19 2 0
7 9 13 19 13 10 0 18 -1 18 -3z m202 -10 c-6 -3 -9 -10 -6 -15 4 -7 2 -8 -5
-4 -9 6 -9 11 0 22 6 8 15 12 18 8 3 -4 0 -9 -7 -11z m153 -1 c-3 -3 -11 0
-18 7 -9 10 -8 11 6 5 10 -3 15 -9 12 -12z m125 11 c0 -1 -8 -7 -18 -12 -13
-7 -19 -6 -19 2 0 7 9 13 19 13 10 0 18 -1 18 -3z m202 -10 c-6 -3 -9 -10 -6
-15 4 -7 2 -8 -5 -4 -9 6 -9 11 0 22 6 8 15 12 18 8 3 -4 0 -9 -7 -11z m24
-21 c-16 -30 -46 -38 -54 -14 -5 16 -23 15 -19 0 1 -7 -6 -12 -17 -13 -21 0
-41 41 -25 50 5 4 9 3 8 -2 -1 -4 -1 -17 0 -27 1 -19 2 -18 23 3 20 22 21 23
32 5 17 -29 33 -26 46 7 7 16 15 28 17 25 2 -2 -3 -18 -11 -34z m154 28 c0 -5
-5 -10 -11 -10 -5 0 -7 5 -4 10 3 6 8 10 11 10 2 0 4 -4 4 -10z m100 3 c0 -1
-8 -7 -18 -12 -13 -7 -19 -6 -19 2 0 7 9 13 19 13 10 0 18 -1 18 -3z m202 -10
c-6 -3 -9 -10 -6 -15 4 -7 2 -8 -5 -4 -9 6 -9 11 0 22 6 8 15 12 18 8 3 -4 0
-9 -7 -11z m153 -1 c-3 -3 -11 0 -18 7 -9 10 -8 11 6 5 10 -3 15 -9 12 -12z
m125 11 c0 -1 -8 -7 -18 -12 -13 -7 -19 -6 -19 2 0 7 9 13 19 13 10 0 18 -1
18 -3z m202 -10 c-6 -3 -9 -10 -6 -15 4 -7 2 -8 -5 -4 -9 6 -9 11 0 22 6 8 15
12 18 8 3 -4 0 -9 -7 -11z m24 -21 c-16 -30 -46 -38 -54 -14 -5 16 -23 15 -19
0 1 -7 -6 -12 -17 -13 -21 0 -41 41 -25 50 5 4 9 3 8 -2 -1 -4 -1 -17 0 -27 1
-19 2 -18 23 3 20 22 21 23 32 5 17 -29 33 -26 46 7 7 16 15 28 17 25 2 -2 -3
-18 -11 -34z m154 28 c0 -5 -5 -10 -11 -10 -5 0 -7 5 -4 10 3 6 8 10 11 10 2
0 4 -4 4 -10z m90 -5 c0 -2 -6 -5 -13 -8 -8 -3 -14 1 -14 8 0 7 6 11 14 8 7
-3 13 -6 13 -8z m-2051 -10 c7 0 17 -9 21 -20 7 -18 4 -21 -21 -20 -15 0 -31
4 -35 8 -4 3 -12 3 -18 0 -6 -4 -21 -8 -32 -9 -16 0 -20 4 -16 18 2 10 9 21
14 24 6 4 8 -1 4 -13 -4 -14 -2 -20 9 -20 9 0 14 6 11 12 -2 7 3 12 12 11 9 0
16 5 14 12 -2 9 2 11 10 6 7 -5 19 -9 27 -9z m220 6 c10 -7 7 -9 -12 -8 -14 1
-23 5 -20 10 6 9 15 9 32 -2z m40 2 c-1 -5 -1 -17 0 -27 1 -19 2 -18 23 3 21
23 21 23 32 3 16 -29 26 -30 40 -4 l12 23 12 -28 c11 -25 11 -26 -2 -10 -9 12
-15 14 -18 6 -6 -18 -38 -20 -45 -3 -6 17 -24 19 -20 3 4 -22 -34 -18 -42 4
-8 20 -6 37 5 37 2 0 3 -3 3 -7z m440 -2 c10 -7 7 -9 -12 -8 -14 1 -23 5 -20
10 6 9 15 9 32 -2z m260 -6 c7 0 17 -9 21 -20 7 -18 4 -21 -21 -20 -15 0 -31
4 -35 8 -4 3 -12 3 -18 0 -20 -13 -37 -12 -43 4 -9 23 17 34 41 17 27 -19 59
-19 34 0 -20 15 -25 31 -5 19 6 -4 18 -8 26 -8z m220 6 c10 -7 7 -9 -12 -8
-14 1 -23 5 -20 10 6 9 15 9 32 -2z m40 2 c-1 -5 -1 -17 0 -27 1 -19 2 -18 23
3 21 23 21 23 32 3 16 -29 26 -30 40 -4 l12 23 12 -28 c11 -25 11 -26 -2 -10
-9 12 -15 14 -18 6 -6 -18 -38 -20 -45 -3 -6 17 -24 19 -20 3 4 -22 -34 -18
-42 4 -8 20 -6 37 5 37 2 0 3 -3 3 -7z m440 -2 c10 -7 7 -9 -12 -8 -14 1 -23
5 -20 10 6 9 15 9 32 -2z m260 -6 c7 0 17 -9 21 -20 7 -18 4 -21 -21 -20 -15
0 -31 4 -35 8 -4 3 -12 3 -18 0 -20 -13 -37 -12 -43 4 -9 23 17 34 41 17 27
-19 59 -19 34 0 -20 15 -25 31 -5 19 6 -4 18 -8 26 -8z m-1452 -1 c-3 -3 -12
-4 -19 -1 -8 3 -5 6 6 6 11 1 17 -2 13 -5z m960 0 c-3 -3 -12 -4 -19 -1 -8 3
-5 6 6 6 11 1 17 -2 13 -5z"/>
<path d="M2675 2389 c-4 -6 -5 -12 -2 -15 2 -3 7 2 10 11 7 17 1 20 -8 4z"/>
<path d="M2675 2229 c-4 -6 -5 -12 -2 -15 2 -3 7 2 10 11 7 17 1 20 -8 4z"/>
<path d="M2675 2069 c-4 -6 -5 -12 -2 -15 2 -3 7 2 10 11 7 17 1 20 -8 4z"/>
<path d="M2675 1909 c-4 -6 -5 -12 -2 -15 2 -3 7 2 10 11 7 17 1 20 -8 4z"/>
<path d="M2675 1749 c-4 -6 -5 -12 -2 -15 2 -3 7 2 10 11 7 17 1 20 -8 4z"/>
<path d="M2675 1589 c-4 -6 -5 -12 -2 -15 2 -3 7 2 10 11 7 17 1 20 -8 4z"/>
<path d="M2675 1429 c-4 -6 -5 -12 -2 -15 2 -3 7 2 10 11 7 17 1 20 -8 4z"/>
<path d="M2675 1269 c-4 -6 -5 -12 -2 -15 2 -3 7 2 10 11 7 17 1 20 -8 4z"/>
<path d="M2675 1109 c-4 -6 -5 -12 -2 -15 2 -3 7 2 10 11 7 17 1 20 -8 4z"/>
<path d="M2675 949 c-4 -6 -5 -12 -2 -15 2 -3 7 2 10 11 7 17 1 20 -8 4z"/>
<path d="M2675 789 c-4 -6 -5 -12 -2 -15 2 -3 7 2 10 11 7 17 1 20 -8 4z"/>
<path d="M2675 629 c-4 -6 -5 -12 -2 -15 2 -3 7 2 10 11 7 17 1 20 -8 4z"/>
<path d="M2675 469 c-4 -6 -5 -12 -2 -15 2 -3 7 2 10 11 7 17 1 20 -8 4z"/>
<path d="M394 188 c-3 -4 2 -8 10 -8 9 0 19 0 23 -1 4 0 9 4 11 10 4 11 -37
11 -44 -1z"/>
<path d="M1306 193 c-11 -11 -7 -20 9 -20 8 0 15 4 15 8 0 11 -16 20 -24 12z"/>
<path d="M1383 185 c0 -8 4 -12 9 -9 4 3 8 9 8 15 0 5 -4 9 -8 9 -5 0 -9 -7
-9 -15z"/>
<path d="M2266 193 c-11 -11 -7 -20 9 -20 8 0 15 4 15 8 0 11 -16 20 -24 12z"/>
<path d="M2343 185 c0 -8 4 -12 9 -9 4 3 8 9 8 15 0 5 -4 9 -8 9 -5 0 -9 -7
-9 -15z"/>
<path d="M2670 2653 c0 -19 21 -27 33 -13 9 10 9 11 -2 5 -8 -4 -17 -2 -22 6
-6 9 -9 10 -9 2z"/>
<path d="M2640 2646 c0 -2 7 -9 15 -16 13 -11 14 -10 9 4 -5 14 -24 23 -24 12z"/>
<path d="M2708 2598 c10 -13 10 -17 0 -20 -8 -3 -7 -6 4 -10 20 -8 18 17 -2
35 -12 10 -12 9 -2 -5z"/>
<path d="M2700 2476 c0 -2 7 -7 16 -10 8 -3 12 -2 9 4 -6 10 -25 14 -25 6z"/>
<path d="M2709 323 c-13 -16 -12 -17 4 -4 9 7 17 15 17 17 0 8 -8 3 -21 -13z"/>
<path d="M295 169 c-4 -6 -5 -12 -2 -15 2 -3 7 2 10 11 7 17 1 20 -8 4z"/>
<path d="M541 161 c-9 -16 -7 -17 17 -13 19 4 22 7 9 10 -9 2 -15 8 -12 13 4
5 4 9 1 9 -3 0 -10 -8 -15 -19z"/>
<path d="M1021 161 c-9 -16 -7 -17 17 -13 19 4 22 7 9 10 -9 2 -15 8 -12 13 4
5 4 9 1 9 -3 0 -10 -8 -15 -19z"/>
<path d="M1501 161 c-9 -16 -7 -17 17 -13 19 4 22 7 9 10 -9 2 -15 8 -12 13 4
5 4 9 1 9 -3 0 -10 -8 -15 -19z"/>
<path d="M1981 161 c-9 -16 -7 -17 17 -13 19 4 22 7 9 10 -9 2 -15 8 -12 13 4
5 4 9 1 9 -3 0 -10 -8 -15 -19z"/>
<path d="M2461 161 c-9 -16 -7 -17 17 -13 19 4 22 7 9 10 -9 2 -15 8 -12 13 4
5 4 9 1 9 -3 0 -10 -8 -15 -19z"/>
<path d="M238 163 c7 -3 16 -2 19 1 4 3 -2 6 -13 5 -11 0 -14 -3 -6 -6z"/>
<path d="M1137 145 c-4 -8 -3 -16 1 -19 4 -3 9 4 9 15 2 23 -3 25 -10 4z"/>
<path d="M2097 145 c-4 -8 -3 -16 1 -19 4 -3 9 4 9 15 2 23 -3 25 -10 4z"/>
<path d="M585 140 c-3 -6 1 -7 9 -4 18 7 21 14 7 14 -6 0 -13 -4 -16 -10z"/>
<path d="M719 133 c-13 -16 -12 -17 4 -4 16 13 21 21 13 21 -2 0 -10 -8 -17
-17z"/>
<path d="M1065 140 c-3 -6 1 -7 9 -4 18 7 21 14 7 14 -6 0 -13 -4 -16 -10z"/>
<path d="M1275 140 c3 -5 8 -10 11 -10 2 0 4 5 4 10 0 6 -5 10 -11 10 -5 0 -7
-4 -4 -10z"/>
<path d="M1545 140 c-3 -6 1 -7 9 -4 18 7 21 14 7 14 -6 0 -13 -4 -16 -10z"/>
<path d="M1679 133 c-13 -16 -12 -17 4 -4 16 13 21 21 13 21 -2 0 -10 -8 -17
-17z"/>
<path d="M2025 140 c-3 -6 1 -7 9 -4 18 7 21 14 7 14 -6 0 -13 -4 -16 -10z"/>
<path d="M2235 140 c3 -5 8 -10 11 -10 2 0 4 5 4 10 0 6 -5 10 -11 10 -5 0 -7
-4 -4 -10z"/>
</g>
</svg>
